<svg xmlns="http://www.w3.org/2000/svg" viewBox="0 0 1850.33 566.04"><defs><style>.cls-1{fill:none;stroke:#ededed;stroke-miterlimit:10;stroke-width:2.88px;}</style></defs><title>Asset 18squiggle_updatedcolor</title><g id="Layer_2" data-name="Layer 2"><g id="Layer_1-2" data-name="Layer 1"><path class="cls-1" d="M.85,172.3C131.48,76.18,254.06,15.22,415.77,2.79,448,.31,517.18-2.81,537.77,34c10,17.8,5.93,40.24-1.55,59.22C511.76,155.22,409.57,224.09,381.3,201c-25.68-26.11,51.3-66.72,91.61-82.1a1694,1694,0,0,1,472-106C998,8.74,1052.24,7.24,1103.46,21.7c31.47,8.88,64.72,28,71.11,60.05,6.2,31.08-15.17,60.26-35.27,84.76l-144.37,176c-33.77,41.17-79.46,101.38-96.23,151.93-5.61,16.91-8.81,36.61.7,51.68,16.82,26.67,57,19.48,86.72,9.05l863.73-302.91"/></g></g></svg>